<mxfile host="Electron" modified="2024-04-19T13:27:16.862Z" agent="Mozilla/5.0 (Windows NT 10.0; Win64; x64) AppleWebKit/537.36 (KHTML, like Gecko) draw.io/24.1.0 Chrome/120.0.6099.109 Electron/28.1.0 Safari/537.36" etag="d36LWdG8ahVJBXGr7cjm" version="24.1.0" type="device">
  <diagram name="Page-1" id="NI6h6QJu92tmk6Kwxo_y">
    <mxGraphModel dx="1220" dy="820" grid="1" gridSize="10" guides="1" tooltips="1" connect="1" arrows="1" fold="1" page="1" pageScale="1" pageWidth="827" pageHeight="1169" math="0" shadow="0">
      <root>
        <mxCell id="0" />
        <mxCell id="1" parent="0" />
        <mxCell id="lmUaCHKBSH6aQMj853Vz-5" style="edgeStyle=orthogonalEdgeStyle;rounded=0;orthogonalLoop=1;jettySize=auto;html=1;exitX=0.5;exitY=1;exitDx=0;exitDy=0;entryX=0.5;entryY=0;entryDx=0;entryDy=0;" edge="1" parent="1" source="lmUaCHKBSH6aQMj853Vz-1" target="lmUaCHKBSH6aQMj853Vz-3">
          <mxGeometry relative="1" as="geometry" />
        </mxCell>
        <mxCell id="lmUaCHKBSH6aQMj853Vz-1" value="Setup/ Initialisation" style="shape=process;whiteSpace=wrap;html=1;backgroundOutline=1;" vertex="1" parent="1">
          <mxGeometry x="160" y="80" width="120" height="40" as="geometry" />
        </mxCell>
        <mxCell id="lmUaCHKBSH6aQMj853Vz-2" value="Radar Node" style="text;html=1;align=center;verticalAlign=middle;whiteSpace=wrap;rounded=0;" vertex="1" parent="1">
          <mxGeometry x="190" y="40" width="60" height="30" as="geometry" />
        </mxCell>
        <mxCell id="lmUaCHKBSH6aQMj853Vz-7" style="edgeStyle=orthogonalEdgeStyle;rounded=0;orthogonalLoop=1;jettySize=auto;html=1;exitX=1;exitY=0.5;exitDx=0;exitDy=0;entryX=0;entryY=0.5;entryDx=0;entryDy=0;" edge="1" parent="1" source="lmUaCHKBSH6aQMj853Vz-3" target="lmUaCHKBSH6aQMj853Vz-4">
          <mxGeometry relative="1" as="geometry" />
        </mxCell>
        <mxCell id="lmUaCHKBSH6aQMj853Vz-23" style="edgeStyle=orthogonalEdgeStyle;rounded=0;orthogonalLoop=1;jettySize=auto;html=1;exitX=0.5;exitY=1;exitDx=0;exitDy=0;entryX=0.5;entryY=0;entryDx=0;entryDy=0;" edge="1" parent="1" source="lmUaCHKBSH6aQMj853Vz-3" target="lmUaCHKBSH6aQMj853Vz-14">
          <mxGeometry relative="1" as="geometry" />
        </mxCell>
        <mxCell id="lmUaCHKBSH6aQMj853Vz-3" value="CAN msg&amp;nbsp;&lt;div&gt;received&lt;/div&gt;&lt;div&gt;?&lt;/div&gt;" style="rhombus;whiteSpace=wrap;html=1;" vertex="1" parent="1">
          <mxGeometry x="180" y="140" width="80" height="80" as="geometry" />
        </mxCell>
        <mxCell id="lmUaCHKBSH6aQMj853Vz-11" style="edgeStyle=orthogonalEdgeStyle;rounded=0;orthogonalLoop=1;jettySize=auto;html=1;exitX=0.5;exitY=1;exitDx=0;exitDy=0;entryX=0.5;entryY=0;entryDx=0;entryDy=0;" edge="1" parent="1" source="lmUaCHKBSH6aQMj853Vz-4" target="lmUaCHKBSH6aQMj853Vz-8">
          <mxGeometry relative="1" as="geometry" />
        </mxCell>
        <mxCell id="lmUaCHKBSH6aQMj853Vz-4" value="Output msg to serial monitor" style="rounded=0;whiteSpace=wrap;html=1;" vertex="1" parent="1">
          <mxGeometry x="320" y="160" width="120" height="40" as="geometry" />
        </mxCell>
        <mxCell id="lmUaCHKBSH6aQMj853Vz-10" style="edgeStyle=orthogonalEdgeStyle;rounded=0;orthogonalLoop=1;jettySize=auto;html=1;exitX=0.5;exitY=1;exitDx=0;exitDy=0;entryX=0.5;entryY=0;entryDx=0;entryDy=0;" edge="1" parent="1" source="lmUaCHKBSH6aQMj853Vz-8" target="lmUaCHKBSH6aQMj853Vz-9">
          <mxGeometry relative="1" as="geometry" />
        </mxCell>
        <mxCell id="lmUaCHKBSH6aQMj853Vz-33" style="edgeStyle=orthogonalEdgeStyle;rounded=0;orthogonalLoop=1;jettySize=auto;html=1;exitX=0;exitY=0.5;exitDx=0;exitDy=0;entryX=0.5;entryY=0;entryDx=0;entryDy=0;" edge="1" parent="1" source="lmUaCHKBSH6aQMj853Vz-8" target="lmUaCHKBSH6aQMj853Vz-14">
          <mxGeometry relative="1" as="geometry" />
        </mxCell>
        <mxCell id="lmUaCHKBSH6aQMj853Vz-8" value="CAN id&lt;div&gt;== 0x0F&lt;/div&gt;&lt;div&gt;?&lt;/div&gt;" style="rhombus;whiteSpace=wrap;html=1;" vertex="1" parent="1">
          <mxGeometry x="340" y="220" width="80" height="80" as="geometry" />
        </mxCell>
        <mxCell id="lmUaCHKBSH6aQMj853Vz-25" style="edgeStyle=orthogonalEdgeStyle;rounded=0;orthogonalLoop=1;jettySize=auto;html=1;exitX=0.5;exitY=1;exitDx=0;exitDy=0;entryX=0.5;entryY=0;entryDx=0;entryDy=0;" edge="1" parent="1" source="lmUaCHKBSH6aQMj853Vz-9" target="lmUaCHKBSH6aQMj853Vz-14">
          <mxGeometry relative="1" as="geometry" />
        </mxCell>
        <mxCell id="lmUaCHKBSH6aQMj853Vz-9" value="Flash LED" style="rounded=0;whiteSpace=wrap;html=1;" vertex="1" parent="1">
          <mxGeometry x="320" y="320" width="120" height="40" as="geometry" />
        </mxCell>
        <mxCell id="lmUaCHKBSH6aQMj853Vz-12" value="Y" style="text;html=1;align=center;verticalAlign=middle;whiteSpace=wrap;rounded=0;" vertex="1" parent="1">
          <mxGeometry x="370" y="290" width="60" height="30" as="geometry" />
        </mxCell>
        <mxCell id="lmUaCHKBSH6aQMj853Vz-13" value="Y" style="text;html=1;align=center;verticalAlign=middle;whiteSpace=wrap;rounded=0;" vertex="1" parent="1">
          <mxGeometry x="240" y="150" width="60" height="30" as="geometry" />
        </mxCell>
        <mxCell id="lmUaCHKBSH6aQMj853Vz-20" style="edgeStyle=orthogonalEdgeStyle;rounded=0;orthogonalLoop=1;jettySize=auto;html=1;exitX=0.5;exitY=1;exitDx=0;exitDy=0;entryX=0.5;entryY=0;entryDx=0;entryDy=0;" edge="1" parent="1" source="lmUaCHKBSH6aQMj853Vz-14" target="lmUaCHKBSH6aQMj853Vz-15">
          <mxGeometry relative="1" as="geometry" />
        </mxCell>
        <mxCell id="lmUaCHKBSH6aQMj853Vz-14" value="Measure distance" style="rounded=0;whiteSpace=wrap;html=1;" vertex="1" parent="1">
          <mxGeometry x="140" y="400" width="160" height="40" as="geometry" />
        </mxCell>
        <mxCell id="lmUaCHKBSH6aQMj853Vz-21" style="edgeStyle=orthogonalEdgeStyle;rounded=0;orthogonalLoop=1;jettySize=auto;html=1;exitX=0.5;exitY=1;exitDx=0;exitDy=0;entryX=0.5;entryY=0;entryDx=0;entryDy=0;" edge="1" parent="1" source="lmUaCHKBSH6aQMj853Vz-15" target="lmUaCHKBSH6aQMj853Vz-16">
          <mxGeometry relative="1" as="geometry" />
        </mxCell>
        <mxCell id="lmUaCHKBSH6aQMj853Vz-15" value="Recplace oldest distance in SUM with new distance" style="rounded=0;whiteSpace=wrap;html=1;" vertex="1" parent="1">
          <mxGeometry x="140" y="460" width="160" height="40" as="geometry" />
        </mxCell>
        <mxCell id="lmUaCHKBSH6aQMj853Vz-22" style="edgeStyle=orthogonalEdgeStyle;rounded=0;orthogonalLoop=1;jettySize=auto;html=1;exitX=0.5;exitY=1;exitDx=0;exitDy=0;entryX=0.5;entryY=0;entryDx=0;entryDy=0;" edge="1" parent="1" source="lmUaCHKBSH6aQMj853Vz-16" target="lmUaCHKBSH6aQMj853Vz-17">
          <mxGeometry relative="1" as="geometry" />
        </mxCell>
        <mxCell id="lmUaCHKBSH6aQMj853Vz-16" value="Calculate moving average" style="rounded=0;whiteSpace=wrap;html=1;" vertex="1" parent="1">
          <mxGeometry x="140" y="520" width="160" height="40" as="geometry" />
        </mxCell>
        <mxCell id="lmUaCHKBSH6aQMj853Vz-19" style="edgeStyle=orthogonalEdgeStyle;rounded=0;orthogonalLoop=1;jettySize=auto;html=1;exitX=1;exitY=0.5;exitDx=0;exitDy=0;entryX=0;entryY=0.5;entryDx=0;entryDy=0;" edge="1" parent="1" source="lmUaCHKBSH6aQMj853Vz-17" target="lmUaCHKBSH6aQMj853Vz-18">
          <mxGeometry relative="1" as="geometry" />
        </mxCell>
        <mxCell id="lmUaCHKBSH6aQMj853Vz-28" style="edgeStyle=orthogonalEdgeStyle;rounded=0;orthogonalLoop=1;jettySize=auto;html=1;exitX=0.5;exitY=1;exitDx=0;exitDy=0;entryX=0;entryY=0.5;entryDx=0;entryDy=0;" edge="1" parent="1" source="lmUaCHKBSH6aQMj853Vz-17" target="lmUaCHKBSH6aQMj853Vz-3">
          <mxGeometry relative="1" as="geometry">
            <Array as="points">
              <mxPoint x="220" y="680" />
              <mxPoint x="120" y="680" />
              <mxPoint x="120" y="180" />
            </Array>
          </mxGeometry>
        </mxCell>
        <mxCell id="lmUaCHKBSH6aQMj853Vz-17" value="new avg !=&lt;div&gt;old avg&lt;/div&gt;&lt;div&gt;?&lt;/div&gt;" style="rhombus;whiteSpace=wrap;html=1;" vertex="1" parent="1">
          <mxGeometry x="180" y="580" width="80" height="80" as="geometry" />
        </mxCell>
        <mxCell id="lmUaCHKBSH6aQMj853Vz-27" style="edgeStyle=orthogonalEdgeStyle;rounded=0;orthogonalLoop=1;jettySize=auto;html=1;exitX=0.5;exitY=1;exitDx=0;exitDy=0;entryX=0.5;entryY=0;entryDx=0;entryDy=0;" edge="1" parent="1" source="lmUaCHKBSH6aQMj853Vz-18" target="lmUaCHKBSH6aQMj853Vz-26">
          <mxGeometry relative="1" as="geometry" />
        </mxCell>
        <mxCell id="lmUaCHKBSH6aQMj853Vz-18" value="Transmit CAN 0xAA,&lt;div&gt;data = new moving average&lt;/div&gt;" style="rounded=0;whiteSpace=wrap;html=1;" vertex="1" parent="1">
          <mxGeometry x="320" y="600" width="160" height="40" as="geometry" />
        </mxCell>
        <mxCell id="lmUaCHKBSH6aQMj853Vz-30" style="edgeStyle=orthogonalEdgeStyle;rounded=0;orthogonalLoop=1;jettySize=auto;html=1;exitX=0.5;exitY=1;exitDx=0;exitDy=0;entryX=0;entryY=0.5;entryDx=0;entryDy=0;" edge="1" parent="1" source="lmUaCHKBSH6aQMj853Vz-26" target="lmUaCHKBSH6aQMj853Vz-3">
          <mxGeometry relative="1" as="geometry">
            <Array as="points">
              <mxPoint x="400" y="720" />
              <mxPoint x="120" y="720" />
              <mxPoint x="120" y="180" />
            </Array>
          </mxGeometry>
        </mxCell>
        <mxCell id="lmUaCHKBSH6aQMj853Vz-26" value="Update previous distance with new" style="rounded=0;whiteSpace=wrap;html=1;" vertex="1" parent="1">
          <mxGeometry x="320" y="660" width="160" height="40" as="geometry" />
        </mxCell>
        <mxCell id="lmUaCHKBSH6aQMj853Vz-31" value="N" style="text;html=1;align=center;verticalAlign=middle;whiteSpace=wrap;rounded=0;" vertex="1" parent="1">
          <mxGeometry x="180" y="650" width="60" height="30" as="geometry" />
        </mxCell>
        <mxCell id="lmUaCHKBSH6aQMj853Vz-32" value="Y" style="text;html=1;align=center;verticalAlign=middle;whiteSpace=wrap;rounded=0;" vertex="1" parent="1">
          <mxGeometry x="230" y="590" width="60" height="30" as="geometry" />
        </mxCell>
        <mxCell id="lmUaCHKBSH6aQMj853Vz-34" value="N" style="text;html=1;align=center;verticalAlign=middle;whiteSpace=wrap;rounded=0;" vertex="1" parent="1">
          <mxGeometry x="300" y="230" width="60" height="30" as="geometry" />
        </mxCell>
        <mxCell id="lmUaCHKBSH6aQMj853Vz-35" value="N" style="text;html=1;align=center;verticalAlign=middle;whiteSpace=wrap;rounded=0;" vertex="1" parent="1">
          <mxGeometry x="210" y="210" width="60" height="30" as="geometry" />
        </mxCell>
      </root>
    </mxGraphModel>
  </diagram>
</mxfile>
